# xmcd
#
# Track frame offsets:
#	150
#	15635
#	26482
#	40892
#	54212
#	73382
#	89440
#	104925
#	118625
#	132640
#	152335
#	169275
#
# Disc length: 2410 seconds
#
# Revision: 0
# Processed by: cddbd v1.4PL0 Copyright (c) Steve Scherf et al.
# Submitted via: audiograbber 1.81.03
#
DISCID=a609680c
DTITLE=Various Artist - Country Blues Guitar (ED CD 7051)
DYEAR=1997
DGENRE=Blues
TTITLE0=Mississippi Fred McDowell - Done Left Here
TTITLE1=Rory Block - Walkin' Blues
TTITLE2=John Hammond - Honeymoon Blues
TTITLE3=Paul Rishell and Annie Raines - Blues For Tampa Red
TTITLE4=Paul Geremia - Broke Down Engine
TTITLE5=Johnny Shines - Going To The River
TTITLE6=Frank Hovington - Mean Old Frisco
TTITLE7=David Bromberg - Long Tall Mama
TTITLE8=Kristina Olsen - John Henry
TTITLE9=John Cephas and Phil Wiggins - Reno Factory
TTITLE10=Roy Book Binder - Mississippi Blues
TTITLE11=Etta Baker - One-Dime Blues
EXTD=
EXTT0=
EXTT1=
EXTT2=
EXTT3=
EXTT4=
EXTT5=
EXTT6=
EXTT7=
EXTT8=
EXTT9=
EXTT10=
EXTT11=
PLAYORDER=
